<svg width="257" height="41" viewBox="0 0 257 41" xmlns="http://www.w3.org/2000/svg"><title>Logos/Logotipo/Colored/Small (257x41)</title><g fill-rule="nonzero" fill="none"><path d="M14.463 9.812l-1.45 7.79c1.313-.027 2.326-.352 3.04-.973.714-.62 1.195-1.595 1.443-2.922.24-1.3.138-2.274-.308-2.922-.445-.652-1.228-.974-2.347-.974h-.377zM0 35.717l6.083-32.69h11.084c3.75 0 6.534.903 8.357 2.71 1.822 1.805 2.444 4.26 1.866 7.366-.355 1.91-1.142 3.54-2.363 4.893-1.22 1.35-2.874 2.428-4.96 3.233l4.132 14.487H13.99l-1.993-12.652L9.64 35.717H0zM35.448 21.364h5.175c.24-1.298.206-2.272-.106-2.92-.313-.652-.902-.976-1.768-.976-.68 0-1.286.318-1.82.952-.536.634-1.03 1.615-1.482 2.944M46.77 27.7c-.847 2.687-2.34 4.803-4.48 6.348-2.137 1.545-4.655 2.317-7.554 2.317-3.403 0-5.832-1.04-7.29-3.123-1.454-2.085-1.824-5.05-1.107-8.902.72-3.864 2.207-6.863 4.463-8.998 2.256-2.135 5.054-3.202 8.394-3.202 3.64 0 6.18.948 7.624 2.843 1.443 1.895 1.81 4.754 1.098 8.576-.083.444-.15.787-.2 1.017-.052.233-.11.443-.18.637H34.732l-.057.314c-.314 1.688-.338 2.897-.072 3.627.266.732.856 1.097 1.77 1.097.677 0 1.263-.21 1.758-.625.496-.42.92-1.062 1.27-1.927h7.372M61.886 35.358c-.694.343-1.422.595-2.185.76-.763.165-1.61.247-2.54.247-3.118 0-5.374-1.077-6.77-3.235-1.394-2.156-1.74-5.115-1.042-8.877.687-3.688 2.16-6.63 4.42-8.822 2.26-2.192 4.924-3.29 7.997-3.29.85 0 1.63.075 2.333.222.705.15 1.35.383 1.938.694l-1.308 7.03c-.266-.177-.55-.31-.85-.39-.3-.082-.63-.124-.992-.124-.914 0-1.72.42-2.42 1.254-.698.836-1.182 1.98-1.45 3.427-.274 1.462-.228 2.562.14 3.303.366.738 1.047 1.107 2.038 1.107.283 0 .595-.042.933-.123.338-.084.702-.2 1.092-.347l-1.334 7.165M64.584 35.717L71.222.05h8.767L73.35 35.716h-8.768M87.584 24.253c-.303 1.63-.353 2.85-.15 3.67.2.823.655 1.232 1.365 1.232.708 0 1.326-.42 1.853-1.266.527-.842.938-2.056 1.233-3.637.3-1.612.342-2.842.13-3.686-.213-.84-.675-1.265-1.383-1.265-.694 0-1.3.42-1.817 1.258-.52.834-.928 2.064-1.232 3.693m2.357 11.464l.472-2.53c-1.073 1.102-2.116 1.91-3.132 2.418-1.016.506-2.067.76-3.155.76-2.41 0-4.1-1.063-5.065-3.19-.968-2.126-1.095-5.1-.384-8.922.717-3.85 1.945-6.834 3.684-8.946 1.74-2.11 3.832-3.167 6.273-3.167 1.104 0 2.065.25 2.886.75.82.5 1.562 1.294 2.226 2.384l.462-2.486h8.767l-4.266 22.93h-8.77M101.922 35.717l4.267-22.93h8.412l-.635 3.405c1.064-1.314 2.21-2.285 3.437-2.912 1.228-.627 2.582-.938 4.063-.938 1.386 0 2.473.315 3.26.952.79.634 1.267 1.6 1.435 2.898.922-1.314 1.97-2.285 3.14-2.912 1.173-.627 2.508-.938 4.005-.938 1.843 0 3.152.522 3.927 1.565.773 1.048.975 2.568.602 4.57l-3.21 17.24h-8.765l2.484-13.346c.133-.713.1-1.244-.106-1.586-.204-.345-.582-.518-1.133-.518-.505 0-.936.2-1.293.595-.356.397-.6.946-.73 1.646l-2.46 13.21h-8.72l2.485-13.345c.133-.713.098-1.244-.107-1.586-.203-.345-.58-.518-1.132-.518-.52 0-.963.2-1.328.595-.365.397-.612.946-.743 1.646l-2.458 13.21h-8.698M148.098 21.364h5.175c.242-1.298.207-2.272-.105-2.92-.312-.652-.903-.976-1.768-.976-.678 0-1.285.318-1.82.952-.536.634-1.03 1.615-1.482 2.944M159.42 27.7c-.847 2.687-2.34 4.803-4.478 6.348s-4.657 2.317-7.556 2.317c-3.403 0-5.833-1.04-7.288-3.123-1.456-2.085-1.826-5.05-1.108-8.902.72-3.864 2.206-6.863 4.463-8.998 2.256-2.135 5.054-3.202 8.394-3.202 3.64 0 6.18.948 7.624 2.843s1.81 4.754 1.1 8.576c-.085.444-.152.787-.202 1.017-.052.233-.11.443-.18.637h-12.807l-.057.314c-.314 1.688-.338 2.897-.072 3.627.266.732.856 1.097 1.77 1.097.678 0 1.264-.21 1.758-.625.496-.42.92-1.062 1.27-1.927h7.372" fill="#90B823"/><path d="M171.845 24.298h3.828l.317-12.114-4.145 12.114zm-13.207 11.42l13.645-32.692h10.847l1.454 32.69h-9.38l.162-4.814h-5.695l-1.628 4.815h-9.404zM197.802 19.17c-.632 3.39-.827 5.71-.587 6.964.24 1.254.95 1.88 2.13 1.88 1.166 0 2.096-.616 2.79-1.847.693-1.23 1.36-3.564 2-6.998.638-3.434.84-5.767.607-7.007-.236-1.24-.936-1.86-2.1-1.86-1.182 0-2.126.628-2.832 1.88-.706 1.255-1.376 3.585-2.008 6.986M201.75 41l-2.84-4.68c-.11 0-.28.008-.512.022-.232.014-.402.023-.512.023-4.144 0-7.075-1.476-8.794-4.433-1.717-2.954-2.074-7.137-1.07-12.538 1.008-5.402 2.916-9.59 5.73-12.56 2.814-2.97 6.268-4.456 10.365-4.456 4.08 0 6.966 1.48 8.66 4.444 1.694 2.962 2.037 7.154 1.028 12.572-.58 3.12-1.462 5.83-2.647 8.127-1.183 2.3-2.695 4.24-4.534 5.824l3.48 4.163L201.748 41M215.566 24.028l3.908-21.002h9.618l-4.07 21.876c-.18.955-.13 1.66.15 2.115.276.455.794.683 1.55.683.77 0 1.38-.228 1.828-.683.447-.454.76-1.16.937-2.115l4.072-21.876h9.664l-3.908 21.002c-.795 4.27-2.333 7.392-4.615 9.372-2.282 1.977-5.48 2.965-9.59 2.965-4.097 0-6.91-.988-8.44-2.965-1.53-1.98-1.9-5.1-1.104-9.372M241.11 35.717l6.083-32.69h9.642l-6.082 32.69h-9.643" fill="#007535"/></g></svg>